<?xml version="1.0" encoding="utf-8"?>
<svg id="Réteg_1" data-name="Réteg 1" xmlns="http://www.w3.org/2000/svg" viewBox="0 0 299.25 275.25">
  <defs>
    <style>
      .cls-1 {
        fill: #faf9fa;
      }

      .cls-2 {
        fill: #4fabdf;
      }

      .cls-3 {
        fill: #1d1d1b;
      }
    </style>
  </defs>
  <path class="cls-2" d="M163.1,121.17l.36-8.99c13.09-4.93,24.87-15.58,29.2-29.15,12.65-39.67-28.19-75.77-65.22-55.48-34.74,19.03-29.9,72.21,7.89,83.98l.08,9.64c-35.38-9.75-51.51-50.46-32.48-82.21,16.37-27.33,53.78-34.79,79.11-14.89,36.41,28.59,25.67,85.24-18.95,97.1Z"/>
  <path class="cls-2" d="M157.11,138.37h-15.34l-1.12-1.12v-47.5c0-.32-4.07-1.79-5.59-3.01-20.89-16.8-3.83-49.76,21.71-41.15,20.56,6.93,20.28,36.47.35,44.53v48.24ZM146.43,56.27c-15.55,2.8-8.73,29.29,7.97,21.43,10.85-5.1,6.29-24-7.97-21.43Z"/>
  <path class="cls-2" d="M134.66,105.46c-34.22-12.59-33.37-64.2,1.86-74.81,49.25-14.83,72.63,56.42,25.83,74.81.4-2.68-.76-7.42.36-9.73.28-.58,7.51-5.65,9.34-7.86,13.16-15.92,6.82-43.37-13.49-49.31-33.23-9.73-53.57,31.55-28.4,53.82,1.29,1.15,4.5,2.35,4.5,2.61v10.47Z"/>
  <path class="cls-3" d="M51.54,173.47c-6.4-3.06-10.75-5.83-18.28-5.2-4.1.34-10.6,2.85-6.75,7.57,5.14,6.3,30.19,2.21,33.18,16.94,5.47,26.96-33.13,26.43-46.95,13.3l6.4-8.59c7.21,4.14,18.4,9.88,26.3,4.65,3.93-2.6,3.23-7.2-1.11-8.93-9.66-3.85-27.72-2.42-30.52-15.87-4.4-21.14,24.69-23.83,38.58-16.14,8.74,4.84,1.96,5.81-.84,12.3Z" style="fill: rgb(255, 255, 255);"/>
  <path class="cls-3" d="M129.43,155.58v19.45c3.04-1.03,5.26-3.2,8.67-3.67,4.3-.59,11.27.11,14.53,3.3.97.95,4.49,7.22,4.49,8.23v31.04h-11.22v-27.3c0-3.31-5.22-6.56-8.51-6.33s-7.95,4.73-7.95,7.82v25.8h-11.22v-57.22c0-1.92,9.4-.87,11.22-1.12Z" style="fill: rgb(255, 255, 255);"/>
  <path class="cls-3" d="M211.8,192.92c0,12.33-10,22.32-22.33,22.32s-22.33-9.99-22.33-22.32,10-22.32,22.33-22.32,22.33,9.99,22.33,22.32ZM186.06,181.17c-12.27,2.79-11.09,26.3,5.65,23.59,14.86-2.41,10.99-27.37-5.65-23.59Z" style="fill: rgb(255, 255, 255);"/>
  <path class="cls-3" d="M264.8,192.92c0,12.32-9.99,22.31-22.31,22.31s-22.31-9.99-22.31-22.31,9.99-22.31,22.31-22.31,22.31,9.99,22.31,22.31ZM254.27,192.95c0-6.59-5.35-11.94-11.94-11.94s-11.94,5.34-11.94,11.94,5.35,11.94,11.94,11.94,11.94-5.34,11.94-11.94Z" style="fill: rgb(255, 255, 255);"/>
  <path class="cls-3" d="M99.61,199.06l9.61,2.9c1.58,1.76-5.72,8.64-7.23,9.59-14.45,9.19-35.76-1.33-35.47-18.96.38-22.79,33.31-29.45,43.08-9.33l-9.01,3.72c-2.93-1.26-3.63-3.81-6.91-5.02-11.04-4.08-19.98,7.97-13.99,17.72,4.28,6.96,16.42,7.05,19.91-.62Z" style="fill: rgb(255, 255, 255);"/>
  <rect class="cls-3" x="274.56" y="156.32" width="10.67" height="57.59" style="fill: rgb(255, 255, 255);"/>
  <polygon class="cls-2" points="201.25 224.39 201.25 228.88 187.78 228.88 187.78 234.11 199.75 234.11 199.75 238.6 187.78 238.6 187.78 243.84 201.25 243.84 201.25 248.32 183.29 248.32 183.29 224.39 201.25 224.39"/>
  <path class="cls-2" d="M148.89,237.1c1.34,1.27,1.26-.52,1.55-1.06.92-1.72,4.76-11.19,5.29-11.53,1-.62,4.41.17,5.86-.12l-11.6,23.94-12.33-23.94c1.78.11,4.11-.54,5.68.67,1.48,1.15,4.44,10.98,5.55,12.04Z"/>
  <polygon class="cls-2" points="75.56 224.39 75.56 243.84 88.28 243.84 88.28 248.32 70.32 248.32 70.32 224.39 75.56 224.39"/>
  <rect class="cls-2" x="109.97" y="224.39" width="5.24" height="23.93"/>
  <path class="cls-2" d="M224.44,224.39h5.24s-.75,17.21-.75,17.21c-2.99.59-4.49-.18-4.49-3.37v-13.84Z"/>
  <circle class="cls-2" cx="226.98" cy="246.12" r="2.61"/>
</svg>